<?xml version="1.0" encoding="utf-8"?>
<!-- Generator: Adobe Illustrator 19.0.0, SVG Export Plug-In . SVG Version: 6.00 Build 0)  -->
<svg version="1.1" id="Layer_1" xmlns="http://www.w3.org/2000/svg" xmlns:xlink="http://www.w3.org/1999/xlink" x="0px" y="0px"
	 viewBox="-80 263.6 450 267.4" style="enable-background:new -80 263.6 450 267.4;" xml:space="preserve">
<style type="text/css">
	.st0{fill:#FFFFFF;}
</style>
<g>
	<g id="XMLID_55_">
		<path id="XMLID_56_" class="st0" d="M85.4,438.8v16.4H68.8c-2,0-3.6-0.7-4.6-2.1c-1-1.4-1.5-3.4-1.5-6.2v-8.2h3.8v9
			c0,0.4,0.1,0.9,0.1,1.3s0.2,0.9,0.5,1.3c0.2,0.4,0.5,0.8,0.9,1s0.9,0.4,1.6,0.4h3.2c-0.1,0-0.1-0.1-0.2-0.3
			c-0.1-0.2-0.2-0.5-0.3-0.8s-0.2-0.8-0.2-1.3s-0.1-1.1-0.1-1.8v-9h3.8v9c0,0.4,0.1,0.9,0.1,1.3c0.1,0.5,0.2,0.9,0.5,1.3
			c0.2,0.4,0.5,0.8,0.9,1s0.9,0.4,1.6,0.4h2.6v-13.2h3.8V438.8z"/>
		<path id="XMLID_58_" class="st0" d="M95.5,442.9c-0.8,0.5-1.2,1.2-1.2,2.2v0.3h10.1v3.3H94.3v0.2c0,0.5,0.1,0.9,0.2,1.3
			c0.2,0.4,0.4,0.7,0.8,1c0.3,0.3,0.9,0.5,1.5,0.6c0.6,0.2,1.5,0.2,2.4,0.2h7.5v3.3h-7.5c-1.7,0-3.1-0.1-4.2-0.3
			c-1.1-0.2-2-0.6-2.7-1c-0.7-0.5-1.2-1-1.5-1.7c-0.3-0.7-0.4-1.5-0.4-2.3v-5.4c0-0.9,0.2-1.7,0.5-2.4c0.3-0.7,0.8-1.3,1.5-1.7
			c0.7-0.5,1.6-0.8,2.7-1c1.2-0.2,2.6-0.3,4.3-0.3h7.3v3.3h-7.3C97.5,442,96.2,442.3,95.5,442.9z"/>
		<path id="XMLID_60_" class="st0" d="M129.2,449.7c0,0.9-0.2,1.7-0.5,2.4c-0.3,0.7-0.8,1.3-1.5,1.7c-0.7,0.5-1.6,0.8-2.8,1
			s-2.6,0.3-4.3,0.3h-8.3v-16.4h8.6c1.7,0,3.1,0.1,4.3,0.3c1.2,0.2,2,0.6,2.7,1c0.7,0.5,1.2,1,1.5,1.7s0.4,1.5,0.4,2.4L129.2,449.7
			L129.2,449.7z M115.7,442v3.3h9.8V445c0-0.4-0.1-0.8-0.2-1.2c-0.1-0.3-0.3-0.7-0.7-0.9c-0.3-0.2-0.9-0.5-1.5-0.6
			c-0.6-0.2-1.5-0.2-2.6-0.2H115.7L115.7,442z M115.7,452h4.5c1.1,0,2-0.1,2.6-0.2c0.7-0.1,1.2-0.3,1.6-0.5c0.4-0.2,0.6-0.6,0.8-1
			c0.1-0.4,0.2-0.9,0.2-1.6v-0.1h-9.8L115.7,452L115.7,452z"/>
		<path id="XMLID_64_" class="st0" d="M150.2,448.6v6.6h-3.8V447c0-2.7,0.5-4.8,1.5-6.2c1-1.4,2.6-2.1,4.6-2.1h10.1v3.3h-9.4
			c-0.5,0-1,0.1-1.3,0.3c-0.3,0.2-0.7,0.5-0.9,0.8c-0.2,0.3-0.4,0.7-0.5,1c-0.1,0.3-0.2,0.8-0.2,1h12.3v3.3h-12.4V448.6z"/>
		<path id="XMLID_66_" class="st0" d="M183.7,451.9v3.3h-16v-3.3h6.1V442h-6.1v-3.3h16v3.3h-6.1v9.9H183.7z"/>
		<path id="XMLID_68_" class="st0" d="M205,455.2h-7.7c-1.5,0-2.9-0.1-3.9-0.3c-1.1-0.2-2-0.5-2.7-1s-1.2-1-1.5-1.7
			c-0.3-0.7-0.5-1.5-0.5-2.5v-10.9h3.8v10c0,0.5,0.1,0.9,0.2,1.3c0.1,0.4,0.4,0.8,0.8,1c0.3,0.3,0.8,0.5,1.5,0.6
			c0.6,0.2,1.4,0.2,2.4,0.2h7.7v3.3H205z"/>
		<path id="XMLID_70_" class="st0" d="M226.2,455.2h-7.7c-1.5,0-2.9-0.1-3.9-0.3c-1.1-0.2-2-0.5-2.7-1c-0.7-0.5-1.2-1-1.5-1.7
			c-0.3-0.7-0.5-1.5-0.5-2.5v-10.9h3.8v10c0,0.5,0.1,0.9,0.2,1.3c0.1,0.4,0.4,0.8,0.8,1c0.3,0.3,0.8,0.5,1.5,0.6
			c0.6,0.2,1.4,0.2,2.4,0.2h7.7v3.3H226.2z"/>
	</g>
	<g id="XMLID_1_">
		<path id="XMLID_2_" class="st0" d="M22.8,472.3c0,0.5-0.1,0.9-0.2,1.2c-0.2,0.3-0.4,0.6-0.8,0.9c-0.3,0.2-0.8,0.4-1.4,0.5
			c-0.6,0.1-1.3,0.2-2.2,0.2H14v-8.3h4.3c0.9,0,1.6,0.1,2.2,0.2c0.6,0.1,1,0.3,1.4,0.5s0.6,0.5,0.8,0.9c0.1,0.3,0.2,0.8,0.2,1.2
			V472.3z M18.3,468.5h-2.4v5.1h2.3c0.5,0,1,0,1.3-0.1c0.3-0.1,0.6-0.2,0.8-0.3c0.2-0.1,0.3-0.3,0.4-0.5c0.1-0.2,0.1-0.5,0.1-0.8
			V470c0-0.2-0.1-0.4-0.1-0.6c-0.1-0.2-0.2-0.3-0.3-0.5s-0.5-0.2-0.8-0.3S18.9,468.5,18.3,468.5z"/>
		<path id="XMLID_5_" class="st0" d="M25.4,466.8h5.8c1,0,1.8,0.3,2.3,1s0.8,1.7,0.8,3.1v4.2h-1.9v-1.5h-4.9v1.5h-1.9L25.4,466.8
			L25.4,466.8z M32.3,470.6c0-0.2,0-0.4-0.1-0.7c-0.1-0.2-0.1-0.5-0.2-0.7c-0.1-0.2-0.3-0.4-0.5-0.5c-0.2-0.1-0.5-0.2-0.8-0.2h-3.4
			v3.6h4.9V470.6z"/>
		<path id="XMLID_8_" class="st0" d="M42,475.2h-1.9v-6.7h-3.4v-1.7h8.8v1.7H42V475.2z"/>
		<path id="XMLID_10_" class="st0" d="M48.1,466.8h5.8c1,0,1.8,0.3,2.3,1s0.8,1.7,0.8,3.1v4.2H55v-1.5H50v1.5h-1.9L48.1,466.8
			L48.1,466.8z M54.9,470.6c0-0.2,0-0.4-0.1-0.7c-0.1-0.2-0.1-0.5-0.2-0.7c-0.1-0.2-0.3-0.4-0.5-0.5c-0.2-0.1-0.5-0.2-0.8-0.2H50
			v3.6h4.9V470.6z"/>
		<path id="XMLID_13_" class="st0" d="M65.5,466.8h5.8c1,0,1.8,0.3,2.3,1c0.5,0.7,0.8,1.7,0.8,3.1v4.2h-1.9v-1.5h-4.9v1.5h-1.9
			L65.5,466.8L65.5,466.8z M72.5,470.6c0-0.2,0-0.4-0.1-0.7c-0.1-0.2-0.1-0.5-0.2-0.7c-0.1-0.2-0.3-0.4-0.5-0.5
			c-0.2-0.1-0.5-0.2-0.8-0.2h-3.4v3.6h4.9C72.5,472,72.5,470.6,72.5,470.6z"/>
		<path id="XMLID_16_" class="st0" d="M77,475.2v-8.3h5.8c1,0,1.8,0.3,2.3,1s0.8,1.7,0.8,3.1v4.2h-2v-4.5c0-0.2,0-0.4-0.1-0.7
			c-0.1-0.2-0.1-0.5-0.2-0.7c-0.1-0.2-0.3-0.4-0.5-0.5c-0.2-0.1-0.5-0.2-0.8-0.2h-3.4v6.7L77,475.2L77,475.2z"/>
		<path id="XMLID_18_" class="st0" d="M88.4,466.8h5.8c1,0,1.8,0.3,2.3,1c0.5,0.7,0.8,1.7,0.8,3.1v4.2h-1.9v-1.5h-4.9v1.5h-1.9
			L88.4,466.8L88.4,466.8z M95.3,470.6c0-0.2,0-0.4-0.1-0.7c-0.1-0.2-0.1-0.5-0.2-0.7c-0.1-0.2-0.3-0.4-0.5-0.5
			c-0.2-0.1-0.5-0.2-0.8-0.2h-3.4v3.6h4.9V470.6z"/>
		<path id="XMLID_21_" class="st0" d="M108.1,475.2h-3.9c-0.8,0-1.5-0.1-2-0.2c-0.5-0.1-1-0.3-1.3-0.5c-0.3-0.2-0.6-0.5-0.8-0.9
			s-0.2-0.8-0.2-1.3v-5.5h1.9v5.1c0,0.2,0.1,0.5,0.1,0.6c0.1,0.2,0.2,0.3,0.3,0.5c0.2,0.1,0.4,0.2,0.8,0.3c0.3,0.1,0.7,0.1,1.2,0.1
			h3.9L108.1,475.2L108.1,475.2z"/>
		<path id="XMLID_23_" class="st0" d="M119,471c0,1.4-0.2,2.4-0.8,3.1s-1.3,1-2.3,1h-5.1v-1.7h4.7c0.2,0,0.5-0.1,0.7-0.2
			c0.2-0.1,0.3-0.2,0.5-0.4c0.1-0.2,0.2-0.3,0.3-0.5s0.1-0.4,0.1-0.6h-3.7c-1,0-1.8-0.3-2.3-1c-0.5-0.7-0.8-1.7-0.8-3.1v-0.8h1.9
			v1.2c0,0.2,0,0.4,0.1,0.7c0.1,0.2,0.1,0.5,0.2,0.7c0.1,0.2,0.3,0.4,0.5,0.5c0.2,0.1,0.5,0.2,0.8,0.2h3.4v-3.3h1.9L119,471L119,471
			z"/>
		<path id="XMLID_25_" class="st0" d="M127,475.2H125v-6.7h-3.4v-1.7h8.8v1.7H127V475.2z"/>
		<path id="XMLID_27_" class="st0" d="M141.1,473.5v1.7H133v-1.7h3.1v-5H133v-1.7h8.1v1.7H138v5H141.1z"/>
		<path id="XMLID_29_" class="st0" d="M146.1,468.9c-0.4,0.3-0.6,0.6-0.6,1.1v1.9c0,0.2,0.1,0.5,0.1,0.6c0.1,0.2,0.2,0.3,0.4,0.5
			c0.2,0.1,0.5,0.2,0.8,0.3c0.3,0.1,0.7,0.1,1.2,0.1h3.8v1.7H148c-0.9,0-1.6-0.1-2.2-0.2c-0.6-0.1-1-0.3-1.3-0.5
			c-0.3-0.2-0.6-0.5-0.7-0.9s-0.2-0.8-0.2-1.2v-2.7c0-0.5,0.1-0.9,0.2-1.2s0.4-0.6,0.8-0.9c0.3-0.2,0.8-0.4,1.4-0.5
			c0.6-0.1,1.3-0.2,2.2-0.2h3.7v1.7h-3.7C147.2,468.5,146.5,468.6,146.1,468.9z"/>
		<path id="XMLID_31_" class="st0" d="M155.2,467.9c0.5-0.7,1.3-1,2.3-1h5.7v1.7h-5.4c-0.3,0-0.5,0.1-0.8,0.2
			c-0.2,0.1-0.3,0.3-0.5,0.5s-0.2,0.3-0.2,0.5s-0.1,0.3-0.1,0.5h6.9v0.8c0,1.4-0.2,2.4-0.8,3.1c-0.5,0.7-1.3,1-2.3,1h-5.7v-1.7h5.4
			c0.3,0,0.5-0.1,0.7-0.2c0.2-0.1,0.3-0.2,0.5-0.4c0.1-0.2,0.2-0.3,0.3-0.5c0.1-0.2,0.1-0.4,0.1-0.6h-6.9V471
			C154.4,469.6,154.7,468.6,155.2,467.9z"/>
		<path id="XMLID_33_" class="st0" d="M174.9,475.2c-0.5,0-1-0.1-1.3-0.3s-0.7-0.5-0.9-0.8c-0.2-0.3-0.5-0.8-0.6-1.3
			s-0.2-1.1-0.2-1.7s0.1-1.2,0.2-1.7c0.1-0.5,0.3-0.9,0.6-1.3c0.2-0.3,0.6-0.6,0.9-0.8c0.4-0.2,0.8-0.3,1.3-0.3h2.9
			c0.8,0,1.4,0.2,1.9,0.6c0.5,0.4,0.8,1,1,1.7h-2.1c-0.1-0.2-0.3-0.3-0.6-0.5c-0.2-0.1-0.5-0.2-0.9-0.2h-1.3c-0.3,0-0.6,0.1-0.8,0.2
			s-0.4,0.2-0.5,0.4c-0.1,0.2-0.2,0.3-0.3,0.5c-0.1,0.2-0.1,0.4-0.1,0.6h7.9v1.7h-1v3.3L174.9,475.2L174.9,475.2z M173.8,471.8
			c0,0.2,0.1,0.4,0.1,0.6s0.2,0.4,0.3,0.5c0.1,0.2,0.3,0.3,0.5,0.4c0.2,0.1,0.5,0.2,0.8,0.2h3.1v-1.7H173.8z"/>
		<path id="XMLID_36_" class="st0" d="M201.9,466.8v8.3h-8.4c-1,0-1.8-0.3-2.3-1c-0.5-0.7-0.8-1.7-0.8-3.1v-4.2h1.9v4.5
			c0,0.2,0,0.4,0.1,0.7c0.1,0.2,0.1,0.5,0.2,0.7c0.1,0.2,0.3,0.4,0.5,0.5c0.2,0.1,0.5,0.2,0.8,0.2h1.6c0,0-0.1-0.1-0.1-0.1
			c-0.1-0.1-0.1-0.2-0.1-0.4c-0.1-0.2-0.1-0.4-0.1-0.6c-0.1-0.3-0.1-0.6-0.1-0.9v-4.5h1.9v4.5c0,0.2,0,0.4,0.1,0.7
			c0.1,0.2,0.1,0.5,0.2,0.7c0.1,0.2,0.3,0.4,0.5,0.5c0.2,0.1,0.5,0.2,0.8,0.2h1.3v-6.7H201.9z"/>
		<path id="XMLID_38_" class="st0" d="M207.1,468.9c-0.4,0.3-0.6,0.6-0.6,1.1v0.2h5.1v1.7h-5.1v0.1c0,0.2,0.1,0.5,0.1,0.6
			c0.1,0.2,0.2,0.3,0.4,0.5c0.2,0.1,0.5,0.2,0.8,0.3c0.3,0.1,0.7,0.1,1.2,0.1h3.8v1.7H209c-0.9,0-1.6-0.1-2.2-0.2
			c-0.6-0.1-1-0.3-1.3-0.5c-0.3-0.2-0.6-0.5-0.7-0.9c-0.1-0.3-0.2-0.8-0.2-1.2v-2.7c0-0.5,0.1-0.9,0.2-1.2c0.2-0.3,0.4-0.6,0.8-0.9
			c0.3-0.2,0.8-0.4,1.4-0.5c0.6-0.1,1.3-0.2,2.2-0.2h3.7v1.7H209C208.1,468.5,207.4,468.6,207.1,468.9z"/>
		<path id="XMLID_40_" class="st0" d="M224.2,472.3c0,0.5-0.1,0.9-0.2,1.2c-0.2,0.3-0.4,0.6-0.8,0.9c-0.3,0.2-0.8,0.4-1.4,0.5
			c-0.6,0.1-1.3,0.2-2.2,0.2h-4.3v-8.3h4.3c0.9,0,1.6,0.1,2.2,0.2c0.6,0.1,1,0.3,1.4,0.5s0.6,0.5,0.8,0.9c0.1,0.3,0.2,0.8,0.2,1.2
			L224.2,472.3L224.2,472.3z M217.3,468.5v1.7h4.9V470c0-0.2-0.1-0.4-0.1-0.6c-0.1-0.2-0.2-0.3-0.3-0.5c-0.2-0.1-0.5-0.2-0.8-0.3
			c-0.3-0.1-0.8-0.1-1.3-0.1L217.3,468.5L217.3,468.5z M217.3,473.5h2.3c0.5,0,1,0,1.3-0.1c0.3-0.1,0.6-0.2,0.8-0.3
			c0.2-0.1,0.3-0.3,0.4-0.5s0.1-0.5,0.1-0.8l0,0h-4.9V473.5z"/>
		<path id="XMLID_44_" class="st0" d="M232.9,466.8h5.8c1,0,1.8,0.3,2.3,1c0.5,0.7,0.8,1.7,0.8,3.1v4.2h-1.9v-1.5h-4.9v1.5h-1.9
			L232.9,466.8L232.9,466.8z M239.8,470.6c0-0.2,0-0.4-0.1-0.7c-0.1-0.2-0.1-0.5-0.2-0.7c-0.1-0.2-0.3-0.4-0.5-0.5
			c-0.2-0.1-0.5-0.2-0.8-0.2h-3.4v3.6h4.9L239.8,470.6L239.8,470.6z"/>
		<path id="XMLID_47_" class="st0" d="M244.3,475.2v-8.3h4.3c0.9,0,1.6,0.1,2.2,0.2c0.6,0.1,1,0.3,1.4,0.5s0.6,0.5,0.8,0.9
			c0.1,0.3,0.2,0.8,0.2,1.2v1.3c0,0.5-0.1,0.9-0.2,1.2c-0.2,0.3-0.4,0.6-0.8,0.9c-0.3,0.2-0.8,0.4-1.4,0.5c-0.6,0.1-1.3,0.2-2.2,0.2
			h-2.3v1.5H244.3z M246.2,468.5v3.6h2.3c0.5,0,1,0,1.3-0.1c0.3-0.1,0.6-0.2,0.8-0.3c0.2-0.1,0.3-0.3,0.4-0.5
			c0.1-0.2,0.1-0.5,0.1-0.8V470c0-0.2-0.1-0.4-0.1-0.6c-0.1-0.2-0.2-0.3-0.3-0.5c-0.2-0.1-0.5-0.2-0.8-0.3c-0.3-0.1-0.8-0.1-1.3-0.1
			L246.2,468.5L246.2,468.5z"/>
		<path id="XMLID_50_" class="st0" d="M255.7,475.2v-8.3h4.3c0.9,0,1.6,0.1,2.2,0.2c0.6,0.1,1,0.3,1.4,0.5s0.6,0.5,0.8,0.9
			c0.1,0.3,0.2,0.8,0.2,1.2v1.3c0,0.5-0.1,0.9-0.2,1.2s-0.4,0.6-0.8,0.9s-0.8,0.4-1.4,0.5c-0.6,0.1-1.3,0.2-2.2,0.2h-2.3v1.5H255.7z
			 M257.7,468.5v3.6h2.3c0.5,0,1,0,1.3-0.1s0.6-0.2,0.8-0.3s0.3-0.3,0.4-0.5c0.1-0.2,0.1-0.5,0.1-0.8V470c0-0.2-0.1-0.4-0.1-0.6
			c-0.1-0.2-0.2-0.3-0.3-0.5c-0.2-0.1-0.5-0.2-0.8-0.3c-0.3-0.1-0.8-0.1-1.3-0.1L257.7,468.5L257.7,468.5z"/>
		<path id="XMLID_53_" class="st0" d="M267.9,467.9c0.5-0.7,1.3-1,2.3-1h5.7v1.7h-5.4c-0.3,0-0.5,0.1-0.8,0.2
			c-0.2,0.1-0.3,0.3-0.5,0.5c-0.1,0.2-0.2,0.3-0.2,0.5s-0.1,0.3-0.1,0.5h6.9v0.8c0,1.4-0.2,2.4-0.8,3.1c-0.5,0.7-1.3,1-2.3,1h-5.7
			v-1.7h5.4c0.3,0,0.5-0.1,0.7-0.2c0.2-0.1,0.3-0.2,0.5-0.4c0.1-0.2,0.2-0.3,0.3-0.5c0.1-0.2,0.1-0.4,0.1-0.6h-6.9V471
			C267.2,469.6,267.4,468.6,267.9,467.9z"/>
	</g>
	<g>
		<path class="st0" d="M209.2,404.9l-12.9-21c0.5-0.8,0.7-1.8,0.7-2.8c0-2.2-1.2-4.1-2.9-5.1v-45.4c1.7-1,2.9-3,2.9-5.1
			c0-3.3-2.7-6-6-6c-3.3,0-6,2.7-6,6c0,2.2,1.2,4.1,2.9,5.1V376c-1.7,1-2.9,3-2.9,5.1c0,0,0,0,0,0.1l-33.4,17.3v-38.3
			c1.9-1,3.2-3,3.2-5.3c0-3.3-2.7-6-6-6s-6,2.7-6,6c0,2.1,1,3.9,2.7,4.9v39c-1.6,1-2.7,2.9-2.7,4.9c0,0.6,0.1,1.2,0.3,1.8l-6.2,8.1
			c-0.3-0.1-0.7-0.1-1.1-0.1c-0.7,0-1.4,0.1-2,0.3l-20.6-20.1c0-0.1,0-0.1,0-0.1c0-2.2-1.2-4-2.9-5.1V352c1.7-1,2.9-2.9,2.9-5.1
			c0-3.3-2.7-6-6-6c-3.3,0-6,2.7-6,6c0,2.2,1.2,4.1,3,5.2v13.2l-5.3,3.6l-11.2-8.3c0.1-0.3,0.1-0.7,0.1-1c0-3.3-2.7-6-6-6
			s-6,2.7-6,6s2.7,6,6,6c0.6,0,1.3-0.1,1.9-0.3l15,11.2l5.5-3.7v16c-1.8,1-3,3-3,5.2c0,0.1,0,0.1,0,0.2l-17.1,17.3
			c-0.4-0.1-0.8-0.1-1.2-0.1c-3.3,0-6,2.7-6,6s2.7,6,6,6c3.3,0,6-2.7,6-6c0-0.6-0.1-1.2-0.2-1.7l16-16.2c0.8,0.3,1.6,0.6,2.6,0.6
			c0.9,0,1.8-0.2,2.6-0.6L130,419c-0.1,0.3-0.1,0.5-0.1,0.8c0,3.3,2.7,6,6,6s6-2.7,6-6c0-0.6-0.1-1.3-0.3-1.8l6.2-8
			c0.3,0.1,0.8,0.1,1.1,0.1c3.3,0,6-2.7,6-6c0-0.1,0-0.1,0-0.2l33.4-17.3c0.8,0.5,1.8,0.7,2.8,0.7h0.1l12.8,20.9
			c-0.5,0.9-0.8,1.8-0.8,2.9c0,3.3,2.7,6,6,6c3.3,0,6-2.7,6-6C215.2,407.6,212.5,404.9,209.2,404.9z M82,361.5
			c-1.2,0-2.1-0.9-2.1-2.1c0-1.2,0.9-2.1,2.1-2.1s2.1,0.9,2.1,2.1C84.1,360.6,83.2,361.5,82,361.5z M83.1,419.2
			c-1.2,0-2.1-0.9-2.1-2.1c0-1.2,0.9-2.1,2.1-2.1s2.1,0.9,2.1,2.1C85.1,418.2,84.2,419.2,83.1,419.2z M107.3,395.9
			c-1.2,0-2.1-0.9-2.1-2.1c0-1.2,0.9-2.1,2.1-2.1s2.1,0.9,2.1,2.1C109.4,394.9,108.5,395.9,107.3,395.9z M107.3,348.9
			c-1.2,0-2.1-0.9-2.1-2.1c0-1.2,0.9-2.1,2.1-2.1s2.1,0.9,2.1,2.1C109.4,348,108.5,348.9,107.3,348.9z M135.9,421.7
			c-1.2,0-2.1-0.9-2.1-2.1c0-1.2,0.9-2.1,2.1-2.1s2.1,0.9,2.1,2.1C138,420.8,137.1,421.7,135.9,421.7z M148.9,405.9
			c-1.2,0-2.1-0.9-2.1-2.1c0-1.2,0.9-2.1,2.1-2.1s2.1,0.9,2.1,2.1C151,405,150.1,405.9,148.9,405.9z M148.9,357
			c-1.2,0-2.1-0.9-2.1-2.1c0-1.2,0.9-2.1,2.1-2.1s2.1,0.9,2.1,2.1C151,356.1,150.1,357,148.9,357z M191.1,383.2
			c-1.2,0-2.1-0.9-2.1-2.1c0-1.2,0.9-2.1,2.1-2.1c1.2,0,2.1,0.9,2.1,2.1C193.2,382.2,192.2,383.2,191.1,383.2z M191.1,327.6
			c-1.2,0-2.1-0.9-2.1-2.1c0-1.2,0.9-2.1,2.1-2.1c1.2,0,2.1,0.9,2.1,2.1C193.2,326.6,192.2,327.6,191.1,327.6z M209.2,412.9
			c-1.2,0-2.1-0.9-2.1-2.1c0-1.2,0.9-2.1,2.1-2.1s2.1,0.9,2.1,2.1C211.3,412,210.4,412.9,209.2,412.9z"/>
	</g>
</g>
</svg>
